<svg xmlns="http://www.w3.org/2000/svg" data-name="Layer 1" viewBox="0 0 100 125" x="0px" y="0px"><title>Salapao</title><path d="M49.57,74.78c13,0,27.85-2.14,27.85-18.86A27.86,27.86,0,0,0,35.76,31.74a1.51,1.51,0,0,0-.55,2.05,1.49,1.49,0,0,0,2,.56A24.85,24.85,0,0,1,74.42,55.92c0,11.27-7.2,15.86-24.85,15.86S24.73,67.19,24.73,55.92a24.57,24.57,0,0,1,5.41-15.47,1.5,1.5,0,1,0-2.35-1.87,27.56,27.56,0,0,0-6.06,17.34C21.73,72.64,36.61,74.78,49.57,74.78Z"/><path d="M56,36.23a1.5,1.5,0,0,0-.39,3c3,.4,6.32,2.78,8.49,6.06a1.5,1.5,0,1,0,2.5-1.66C64,39.57,59.9,36.74,56,36.23Z"/><path d="M66.17,52.36a1.51,1.51,0,0,0,1.3,1.69h.19a1.51,1.51,0,0,0,1.49-1.31c0-.23,0-.48.07-.72a1.5,1.5,0,0,0-3-.18A4.4,4.4,0,0,1,66.17,52.36Z"/><text x="0" y="115" fill="#000000" font-size="5px" font-weight="bold" font-family="'Helvetica Neue', Helvetica, Arial-Unicode, Arial, Sans-serif">Created by NAS</text><text x="0" y="120" fill="#000000" font-size="5px" font-weight="bold" font-family="'Helvetica Neue', Helvetica, Arial-Unicode, Arial, Sans-serif">from the Noun Project</text></svg>