<?xml version="1.0" encoding="UTF-8"?><svg id="Layer_2" xmlns="http://www.w3.org/2000/svg" viewBox="0 0 136 158.71"><defs><style>.cls-1{fill:#709b67;}.cls-2{fill:#727272;}.cls-3{fill:#77a4b7;}.cls-4{fill:#b2a359;}.cls-5{fill:#b7b7b7;}.cls-6{fill:#4b4c4b;}</style></defs><g id="Layer_1-2"><rect class="cls-5" x="27.58" y="80.04" width="3.95" height="2.61"/><rect class="cls-5" x="36.45" y="80.04" width="3.95" height="2.61"/><rect class="cls-5" x="45.32" y="80.04" width="3.95" height="2.61"/><rect class="cls-5" x="27.58" y="117.4" width="3.95" height="2.61"/><rect class="cls-5" x="36.45" y="117.4" width="3.95" height="2.61"/><rect class="cls-5" x="45.32" y="117.4" width="3.95" height="2.61"/><rect class="cls-5" x="17.77" y="89.88" width="3.95" height="2.61" transform="translate(110.93 71.45) rotate(90)"/><rect class="cls-5" x="17.77" y="98.75" width="3.95" height="2.61" transform="translate(119.8 80.32) rotate(90)"/><rect class="cls-5" x="17.77" y="107.62" width="3.95" height="2.61" transform="translate(128.67 89.18) rotate(90)"/><rect class="cls-5" x="55.13" y="89.88" width="3.95" height="2.61" transform="translate(148.29 34.09) rotate(90)"/><rect class="cls-5" x="55.13" y="98.75" width="3.95" height="2.61" transform="translate(157.16 42.96) rotate(90)"/><rect class="cls-5" x="55.13" y="107.62" width="3.95" height="2.61" transform="translate(166.02 51.83) rotate(90)"/><path class="cls-3" d="M38.42,27.66c-3.45,0-6.71.85-9.58,2.33V0h-11.42v69.66h11.42v-2.33c2.87,1.48,6.13,2.33,9.58,2.33,11.6,0,21-9.4,21-21s-9.4-21-21-21ZM38.42,58.79c-5.59,0-10.12-4.53-10.12-10.12s4.53-10.12,10.12-10.12,10.12,4.53,10.12,10.12-4.53,10.12-10.12,10.12Z"/><path class="cls-4" d="M88.39,80.38c-11.6,0-21,9.4-21,21s9.4,21,21,21,21-9.4,21-21-9.4-21-21-21ZM88.39,111.51c-5.59,0-10.12-4.53-10.12-10.12s4.53-10.12,10.12-10.12,10.12,4.53,10.12,10.12-4.53,10.12-10.12,10.12Z"/><path class="cls-1" d="M98,27.54v2.46c-2.88-1.49-6.14-2.34-9.61-2.34-11.6,0-21,9.4-21,21h0c0,11.6,9.4,21,21,21,3.47,0,6.73-.85,9.61-2.34v2.46h11.39v-21.12h0v-21.12h-11.39ZM88.39,58.08c-5.59,0-10.12-4.53-10.12-10.12s4.53-10.12,10.12-10.12,10.12,4.53,10.12,10.12-4.53,10.12-10.12,10.12Z"/><path class="cls-2" d="M18.65,143.56c0,5.45-3.78,9-8.92,9-2.4,0-4.44-.82-5.82-2.5v2.27H0v-24.38h4.11v8.97c1.42-1.58,3.39-2.33,5.63-2.33,5.13,0,8.92,3.52,8.92,8.97ZM14.48,143.56c0-3.35-2.24-5.49-5.2-5.49s-5.23,2.14-5.23,5.49,2.27,5.49,5.23,5.49,5.2-2.14,5.2-5.49Z"/><path class="cls-2" d="M39.74,134.79v17.54h-3.92v-2.27c-1.38,1.67-3.42,2.5-5.82,2.5-5.13,0-8.88-3.55-8.88-9s3.75-8.97,8.88-8.97c2.24,0,4.21.76,5.62,2.33v-2.14h4.11ZM35.7,143.56c0-3.35-2.24-5.49-5.23-5.49s-5.2,2.14-5.2,5.49,2.24,5.49,5.2,5.49,5.23-2.14,5.23-5.49Z"/><path class="cls-2" d="M43.69,143.56c0-5.26,3.95-8.97,9.34-8.97s9.38,3.71,9.38,8.97-3.92,9-9.38,9-9.34-3.75-9.34-9ZM58.26,143.56c0-3.35-2.24-5.49-5.23-5.49s-5.2,2.14-5.2,5.49,2.24,5.49,5.2,5.49,5.23-2.14,5.23-5.49Z"/><path class="cls-2" d="M64.91,143.56c0-5.26,3.95-8.97,9.51-8.97,3.42,0,6.15,1.41,7.5,4.07l-3.16,1.84c-1.05-1.67-2.63-2.43-4.38-2.43-3.03,0-5.33,2.1-5.33,5.49s2.3,5.49,5.33,5.49c1.74,0,3.32-.76,4.38-2.43l3.16,1.84c-1.35,2.63-4.08,4.11-7.5,4.11-5.56,0-9.51-3.75-9.51-9Z"/><path class="cls-2" d="M102.61,142.28v10.05h-4.11v-9.53c0-3.12-1.55-4.63-4.18-4.63-2.93,0-4.9,1.77-4.9,5.29v8.87h-4.11v-24.38h4.11v8.87c1.35-1.45,3.42-2.23,5.86-2.23,4.21,0,7.34,2.4,7.34,7.69Z"/><path class="cls-2" d="M107.29,129.44c0-1.38,1.12-2.46,2.63-2.46s2.63,1.02,2.63,2.37c0,1.45-1.09,2.56-2.63,2.56s-2.63-1.08-2.63-2.46ZM107.84,134.79h4.11v17.54h-4.11v-17.54Z"/><path class="cls-2" d="M136,143.56c0,5.45-3.78,9-8.92,9-2.24,0-4.21-.75-5.63-2.37v8.51h-4.11v-23.92h3.92v2.3c1.38-1.68,3.42-2.5,5.82-2.5,5.13,0,8.92,3.55,8.92,8.97ZM131.83,143.56c0-3.35-2.24-5.49-5.2-5.49s-5.23,2.14-5.23,5.49,2.27,5.49,5.23,5.49,5.2-2.14,5.2-5.49Z"/><rect class="cls-6" x="21.05" y="82.65" width="34.75" height="34.75" rx="4.18" ry="4.18"/></g></svg>